<svg xmlns="http://www.w3.org/2000/svg" version="1.1" xmlns:xlink="http://www.w3.org/1999/xlink" xmlns:svgjs="http://svgjs.dev/svgjs" width="1000" height="1000" viewBox="0 0 1000 1000"><rect width="1000" height="1000" fill="#ffffff"></rect><g transform="matrix(0.7,0,0,0.7,149.57575757575756,385.96366803880915)"><svg viewBox="0 0 396 129" data-background-color="#ffffff" preserveAspectRatio="xMidYMid meet" height="325" width="1000" xmlns="http://www.w3.org/2000/svg" xmlns:xlink="http://www.w3.org/1999/xlink"><g id="tight-bounds" transform="matrix(1,0,0,1,0.2400000000000091,0.16236175466704594)"><svg viewBox="0 0 395.52 128.67527858382252" height="128.67527858382252" width="395.52"><g><svg viewBox="0 0 397.4975999999999 129.3186549767416" height="128.67527858382252" width="395.52"><g><rect width="397.4975999999999" height="3.960859602465818" x="0" y="71.06784786095018" fill="#31c48d" opacity="1" stroke-width="0" stroke="transparent" fill-opacity="1" class="rect-o-0" data-fill-palette-color="primary" rx="1%" id="o-0" data-palette-color="#31c48d"></rect></g><g transform="matrix(1,0,0,1,0.9887999999999693,85.39744987824798)"><svg viewBox="0 0 395.52 43.92120509849363" height="43.92120509849363" width="395.52"><g id="textblocktransform"><svg viewBox="0 0 395.52 43.92120509849363" height="43.92120509849363" width="395.52" id="textblock"><g><svg viewBox="0 0 395.52 43.92120509849363" height="43.92120509849363" width="395.52"><g transform="matrix(1,0,0,1,0,0)"><svg width="395.52" viewBox="5 -28.75 258.8900146484375 28.75" height="43.92120509849363" data-palette-color="#31c48d"><g class="undefined-text-0" data-fill-palette-color="primary" id="text-0"><path d="M5-28.75L5-28.75 21-28.75 21-22.85 11.3-22.85 11.3-17.2 21-17.2 21-11.35 11.3-11.35 11.3 0 5 0 5-28.75ZM39.45 0L39.45 0 39.45-11.9 34.75-14.35 39.45-16.6 39.45-25.3 33.55-28.75 23.25-28.75 23.25-22.85 33.15-22.85 33.15-17.2 23.25-17.2 23.25-11.35 33.15-11.35 33.15 0 39.45 0ZM47.95-28.75L47.95-28.75 63.95-28.75 63.95-22.85 54.25-22.85 54.25-17.2 63.95-17.2 63.95-11.5 54.25-11.5 54.25-5.65 63.75-5.65 63.75 0 47.95 0 47.95-28.75ZM66.4-5.65L66.4-5.65 66.4 0 82.4 0 82.4-5.65 66.4-5.65ZM82.4-22.85L82.4-22.85 82.4-28.75 66.2-28.75 66.2-22.85 82.4-22.85ZM74.3-11.5L74.3-11.5 74.3-17.2 66.2-17.2 66.2-11.5 74.3-11.5ZM87.9-3.4L87.9-25.3 93.75-28.75 104.1-28.75 104.1-23.1 94.4-23.1 94.4-5.85 103.9-5.85 103.9 0 93.75 0 87.9-3.4ZM122.55-9.3L116.05-9.3 116.05-5.85 106.55-5.85 106.55 0 116.7 0 122.55-3.4 122.55-9.3ZM116.05-19.6L122.55-19.6 122.55-25.3 116.7-28.75 106.35-28.75 106.35-23.1 116.05-23.1 116.05-19.6ZM130.54-28.75L130.54-28.75 136.84-28.75 136.84 0 130.54 0 130.54-28.75ZM144.84-3.4L144.84-25.3 150.69-28.75 161.04-28.75 161.04-22.85 151.34-22.85 151.34-5.65 160.84-5.65 160.84 0 150.69 0 144.84-3.4ZM172.99-19.45L179.49-19.45 179.49-25.3 173.64-28.75 163.29-28.75 163.29-22.85 172.99-22.85 172.99-19.45ZM179.49-3.4L179.49-17.2 163.29-17.2 163.29-11.5 172.99-11.5 172.99-5.65 163.49-5.65 163.49 0 173.64 0 179.49-3.4ZM188.49-28.75L188.49-28.75 204.49-28.75 204.49-22.85 194.79-22.85 194.79-17.2 204.49-17.2 204.49-11.5 194.79-11.5 194.79-5.65 204.29-5.65 204.29 0 188.49 0 188.49-28.75ZM206.94-5.65L206.94-5.65 206.94 0 222.94 0 222.94-5.65 206.94-5.65ZM222.94-22.85L222.94-22.85 222.94-28.75 206.74-28.75 206.74-22.85 222.94-22.85ZM214.84-11.5L214.84-11.5 214.84-17.2 206.74-17.2 206.74-11.5 214.84-11.5ZM229.44 0L229.44-28.75 235.14-28.75 245.44-19.05 245.44-11.5 235.74-20.85 235.74 0 229.44 0ZM247.69-17.2L257.59-8.1 257.59-28.75 263.89-28.75 263.89 0 257.99 0 247.69-9.9 247.69-17.2Z" fill="#31c48d" data-fill-palette-color="primary"></path></g></svg></g></svg></g></svg></g></svg></g><g transform="matrix(1,0,0,1,162.9044202221813,0)"><svg viewBox="0 0 71.6887595556373 60.6991054461182" height="60.6991054461182" width="71.6887595556373"><g><svg xmlns="http://www.w3.org/2000/svg" xmlns:xlink="http://www.w3.org/1999/xlink" version="1.1" x="0" y="0" viewBox="4 10.950002670288086 91 77.04999542236328" enable-background="new 0 0 100 100" xml:space="preserve" height="60.6991054461182" width="71.6887595556373" class="icon-icon-0" data-fill-palette-color="accent" id="icon-0"><path d="M25.078 63.478c-0.716-1.596 0.071-4.458 0.164-4.779l0.22-0.766 0.756 0.25c0.088 0.029 2.16 0.747 2.751 3.683 0.254 1.262 3.448 6.175 2.506 5.81-0.618-0.239-2.162-0.793-2.854-1.115C27.342 65.968 25.892 65.294 25.078 63.478zM74.188 67.875c0 0-7.563-0.438-11.195 3.108-0.008-1.24 0.195-2.648 0.909-4.241l0.808-1.801-1.93 0.414c-3.249 0.696-7.306 4.879-9.802 8.729-3.554-3.215-8.77-5.748-9.633-6.156l-4.058-1.908 2.875 3.468c0.007 0.009 0.755 0.937 0.755 3.095 0 0.643-0.204 1.442-0.486 2.295-0.362-0.4-0.75-0.813-1.174-1.245-1.729-1.764-3.881-5.284-3.902-5.319l-1.104-1.814-0.695 2.007c-0.043 0.125-0.828 2.437-0.709 5.069-2.39-2.046-5.393-4.008-8.302-4.239l-1.764-0.14 0.79 1.583c1.359 2.725 1.547 4.6 1.713 6.254 0.201 2.013 0.375 3.751 2.678 5.582 0.432 0.345 1.062 0.272 1.404-0.16 0.344-0.432 0.104-0.919-0.16-1.404-0.913-1.676-0.194-3.122-0.194-4.664 2.069 0.73 4.156 4.384 5.697 3.55 0.482-0.26 0.587-2.511 0.75-3.687 0.812 1.191 2 11.582 7.926 11.582 0.553 0 1-0.447 1-1s-0.447-1-1-1c-0.784 0-3.052-1.485-3.052-3.78 0-0.9 0.336-2.022 0.755-3.184 1.844 2.647 1.005 4.382 1.945 5.113 0.148 0.115 0.338 0.142 0.513 0.142 0.34 0 2.048-0.873 2.239-4.186 2.49 1.363 4.777 5.275 5.977 5.834 0.26 0.121 2.244-2.074 2.863-5.084 0.292-1.42 0.468-3.485 2.938-5C58.949 78.297 61 80.625 61 80.625s3.007-5.054 4.375-5.938c-0.719 2.308 0.982 1.515 1.459 2.727 1.814 4.61-0.387 7.99-0.307 8.242 0.307 0.969 0.99 0.458 1.41 0.101 3.993-3.399 2.549-6.87 2.75-8.882C71.125 72.5 74.188 67.875 74.188 67.875zM75.276 57.493l-0.668-0.965-0.484 1.2c-1.052 2.569-3.582 5.495-3.608 5.524l-1.249 1.222L71.117 64c0.001 0 0.001 0 0.002 0 0.173 0 3.688-0.552 4.696-2.821C76.306 60.072 76.12 58.848 75.276 57.493zM64.375 79.375c-0.553 0-1.387 4.21-4.253 5.758-1.721 0.93-0.06 2.367 1.065 2.011C65.292 85.845 64.928 79.375 64.375 79.375z" fill="#096a2e" data-fill-palette-color="accent"></path><path d="M49.5 62.89c13.435 0 23.956-9.973 24.475-22.89h-48.95C25.544 52.917 36.065 62.89 49.5 62.89zM94 19h-2.05c0.73-1.38 1.57-2.87 2.37-4.23l0.28-0.48-0.26-0.5c-0.42-0.81-1.95-3.41-3.81-2.59l-0.17 0.08-0.13 0.13c-0.54 0.55-1.66 2.73-3.96 7.42-0.03 0.06-0.06 0.11-0.09 0.17h-1.02c-0.48-2.25-0.87-5.23-1.06-7.47l-1.99 0.17c0.08 0.97 0.39 4.36 1.01 7.3H51v-1c0-0.55-0.45-1-1-1s-1 0.45-1 1v1H17.06c0.64-2.04 1.35-4.68 1.85-7.73l-1.98-0.32c-0.52 3.23-1.31 6.02-1.98 8.05h-3.02c-0.82-1.44-1.6-3.63-2.08-7.08L9.73 11H8.86c-1.76 0-3.75 1-3.83 1.04l-0.77 0.42 0.24 0.82c0.05 0.17 1.09 3.74 2.01 5.72H5c-0.55 0-1 0.45-1 1s0.45 1 1 1h2.58c1.45 2.93 1.66 5.5 2.23 12.6 0.19 2.39 0.41 5.44 0.75 8.99C12.03 58.32 11.57 83 9.77 88h7.28c0.11-5 0.68-33.67-0.03-38.84-1.87-13.76-2.5-24.07-1.6-25.87L15.43 23c0 0 0.01 0.15 0.02 0.15l0.34-0.6-0.04 0.02c0.17-0.4 0.38-0.9 0.63-1.57H49v13.15c-1.49 0.4-2.59 1.75-2.59 3.37 0 0.16 0.02 0.32 0.04 0.48h2.04c-0.06-0.15-0.08-0.31-0.08-0.48 0-0.51 0.25-0.97 0.65-1.24C49.18 36.69 49.55 37 50 37c0.41 0 0.76-0.25 0.91-0.6 0.32 0.28 0.52 0.67 0.52 1.12 0 0.16-0.03 0.33-0.08 0.48h2.04c0.02-0.16 0.04-0.32 0.04-0.48 0-1.55-1.03-2.86-2.43-3.32V21h32.61c0.24 0.78 0.5 1.46 0.8 1.95-0.07 0.52-0.28 1.66-0.48 2.77-0.78 4.22-2.07 11.3-1.79 14.93 0.37 4.87 2.24 19.1 3.41 26.39C86.53 73.15 84.24 84 83.76 87h7.86c0.17-4 0.81-18.14-0.57-23.66-1.24-4.97-3.94-22.37-3.48-25.72 0.23-1.61 0.66-4.18 1.08-6.62 0.53-3.09 1.03-6.04 1.1-7.07 0.02-0.41 0.49-1.52 1.18-2.93H94c0.55 0 1-0.45 1-1S94.55 19 94 19zM14.07 21.43c-0.17-0.12-0.36-0.26-0.55-0.43h0.72C14.18 21.16 14.12 21.3 14.07 21.43z" fill="#096a2e" data-fill-palette-color="accent"></path></svg></g></svg></g><g></g></svg></g><defs></defs></svg><rect width="395.52" height="128.67527858382252" fill="none" stroke="none" visibility="hidden"></rect></g></svg></g></svg>